<svg width="100" height="101" viewBox="0 0 100 101" fill="none" xmlns="http://www.w3.org/2000/svg">
<g clip-path="url(#clip0_158_21)">
<path d="M16.7375 75.2794C17.3862 75.9306 17.8833 76.7169 18.1934 77.5822C18.5034 78.4476 18.6188 79.3706 18.5312 80.2856C18.092 84.5205 17.2592 88.7052 16.0437 92.7856C24.7625 90.7669 30.0875 88.4294 32.5063 87.2044C33.8781 86.5096 35.4581 86.3449 36.9437 86.7419C41.2027 87.8773 45.5923 88.4489 50 88.4419C74.975 88.4419 93.75 70.8981 93.75 50.9419C93.75 30.9919 74.975 13.4419 50 13.4419C25.025 13.4419 6.25 30.9919 6.25 50.9419C6.25 60.1169 10.1062 68.6294 16.7375 75.2794ZM13.6562 99.6856C12.1754 99.9792 10.6898 100.248 9.2 100.492C7.95 100.692 7 99.3919 7.49375 98.2294C8.0487 96.9206 8.55735 95.5927 9.01875 94.2481L9.0375 94.1856C10.5875 89.6856 11.85 84.5107 12.3125 79.6919C4.64375 72.0044 0 61.9419 0 50.9419C0 26.7794 22.3875 7.19189 50 7.19189C77.6125 7.19189 100 26.7794 100 50.9419C100 75.1044 77.6125 94.6919 50 94.6919C45.0478 94.6986 40.1162 94.0556 35.3312 92.7794C32.0812 94.4231 25.0875 97.4169 13.6562 99.6856Z" fill="#04C37F"/>
<path d="M44.1626 43.1917C42.9452 41.2957 41.1452 39.8461 39.0333 39.0608C36.9215 38.2754 34.6117 38.1968 32.4513 38.8366C30.2909 39.4764 28.3964 40.8001 27.0528 42.6088C25.7091 44.4175 24.9888 46.6135 25.0001 48.8667C25.0013 50.7325 25.5034 52.5638 26.4541 54.1693C27.4049 55.7747 28.7693 57.0954 30.4049 57.9933C32.0404 58.8912 33.8871 59.3335 35.752 59.2738C37.6169 59.2142 39.4316 58.6548 41.0064 57.6542C40.1876 60.0854 38.6626 62.6792 36.1501 65.2792C35.6694 65.7764 35.406 66.4443 35.4177 67.1359C35.4235 67.4783 35.4967 67.8162 35.6331 68.1303C35.7695 68.4445 35.9664 68.7286 36.2126 68.9667C36.4589 69.2047 36.7496 69.3919 37.0681 69.5176C37.3867 69.6432 37.7269 69.7049 38.0693 69.6991C38.7609 69.6874 39.4194 69.4014 39.9001 68.9042C49.1876 59.2792 47.9814 48.8167 44.1626 43.2042V43.1917ZM69.1626 43.1917C67.9452 41.2957 66.1452 39.8461 64.0333 39.0608C61.9215 38.2754 59.6117 38.1968 57.4513 38.8366C55.2908 39.4764 53.3964 40.8001 52.0528 42.6088C50.7091 44.4175 49.9888 46.6135 50.0001 48.8667C50.0012 50.7325 50.5034 52.5638 51.4541 54.1693C52.4049 55.7747 53.7693 57.0954 55.4049 57.9933C57.0404 58.8912 58.8871 59.3335 60.752 59.2738C62.6169 59.2142 64.4315 58.6548 66.0064 57.6542C65.1876 60.0854 63.6626 62.6792 61.1501 65.2792C60.9121 65.5254 60.7249 65.8161 60.5992 66.1347C60.4736 66.4532 60.4119 66.7934 60.4177 67.1359C60.4235 67.4783 60.4967 67.8162 60.6331 68.1303C60.7695 68.4445 60.9664 68.7286 61.2126 68.9667C61.4589 69.2047 61.7496 69.3919 62.0681 69.5176C62.3867 69.6432 62.7269 69.7049 63.0693 69.6991C63.4117 69.6933 63.7497 69.6201 64.0638 69.4837C64.3779 69.3473 64.6621 69.1504 64.9001 68.9042C74.1876 59.2792 72.9814 48.8167 69.1626 43.2042V43.1917Z" fill="#04C37F"/>
</g>
<defs>
<clipPath id="clip0_158_21">
<rect width="100" height="100" fill="white" transform="translate(0 0.941895)"/>
</clipPath>
</defs>
</svg>
