<svg width="24" height="24" viewBox="0 0 24 24" fill="none" xmlns="http://www.w3.org/2000/svg">
<path d="M1.76551 1.6786C1.87754 1.58355 2.01503 1.52349 2.16089 1.50589C2.30676 1.48829 2.45458 1.51392 2.58601 1.5796L22.086 11.3296C22.2104 11.392 22.315 11.4877 22.3881 11.6061C22.4612 11.7245 22.5 11.8609 22.5 12.0001C22.5 12.1393 22.4612 12.2757 22.3881 12.3941C22.315 12.5125 22.2104 12.6082 22.086 12.6706L2.58601 22.4206C2.45467 22.4865 2.30689 22.5123 2.161 22.4949C2.01511 22.4775 1.87755 22.4176 1.76539 22.3227C1.65323 22.2278 1.57142 22.102 1.53011 21.961C1.48879 21.82 1.4898 21.67 1.53301 21.5296L4.46551 12.0001L1.53301 2.4706C1.49005 2.33032 1.48918 2.18051 1.53051 2.03974C1.57183 1.89897 1.65354 1.7734 1.76551 1.6786ZM5.80351 12.7501L3.48301 20.2951L20.073 12.0001L3.48301 3.7051L5.80351 11.2501H14.25C14.4489 11.2501 14.6397 11.3291 14.7803 11.4698C14.921 11.6104 15 11.8012 15 12.0001C15 12.199 14.921 12.3898 14.7803 12.5304C14.6397 12.6711 14.4489 12.7501 14.25 12.7501H5.80501H5.80351Z" fill="#04C37F"/>
</svg>
